<?xml version="1.0" encoding="UTF-8"?>
<svg xmlns="http://www.w3.org/2000/svg" viewBox="0 0 142.56 117.36">
  <defs>
    <style>
      .cls-1 {
        mix-blend-mode: screen;
        opacity: .18;
      }

      .cls-1, .cls-2 {
        fill: #feda00;
      }

      .cls-3 {
        isolation: isolate;
      }

      .cls-4 {
        fill: #544118;
        opacity: .15;
      }

      .cls-5 {
        fill: #f9ed2f;
      }

      .cls-6 {
        fill: #f3b31b;
      }

      .cls-7 {
        fill: none;
      }

      .cls-8 {
        fill: #fff09a;
        opacity: .25;
      }
    </style>
  </defs>
  <g class="cls-3">
    <g id="Layer_1" data-name="Layer 1">
      <g>
        <circle class="cls-5" cx="71.28" cy="58.68" r="40"/>
        <circle class="cls-2" cx="71.52" cy="58.92" r="38.65"/>
        <circle class="cls-5" cx="71.52" cy="58.92" r="32.65"/>
        <circle class="cls-6" cx="71.52" cy="58.92" r="30.48"/>
        <path class="cls-8" d="m44.72,58.92c0-16.22,12.67-29.47,28.64-30.42-.61-.04-1.22-.06-1.84-.06-16.83,0-30.48,13.65-30.48,30.48s13.65,30.48,30.48,30.48c.62,0,1.23-.02,1.84-.06-15.98-.95-28.64-14.2-28.64-30.42Z"/>
        <path class="cls-6" d="m102,58.92c0-16.22-12.67-29.47-28.64-30.42-15.98.95-28.64,14.2-28.64,30.42s12.67,29.47,28.64,30.42c15.98-.95,28.64-14.2,28.64-30.42Z"/>
        <path class="cls-4" d="m83.62,30.94c9.22,5.24,15.45,15.15,15.45,26.51,0,16.83-13.65,30.48-30.48,30.48-4.3,0-8.38-.89-12.09-2.5,4.44,2.52,9.56,3.97,15.03,3.97,16.83,0,30.48-13.65,30.48-30.48,0-12.54-7.57-23.3-18.39-27.98Z"/>
        <path class="cls-1" d="m41.05,58.92c0,8.13,3.19,15.51,8.38,20.97l1.13,1.13c5.46,5.19,12.84,8.38,20.97,8.38,5.12,0,9.93-1.27,14.17-3.49l-41.15-41.15c-2.23,4.23-3.49,9.05-3.49,14.17Z"/>
        <path class="cls-1" d="m102,58.92c0-1.35-.1-2.67-.27-3.97l-26.24-26.24c-1.3-.17-2.63-.27-3.97-.27-4.36,0-8.51.92-12.26,2.58l40.17,40.17c1.65-3.75,2.58-7.9,2.58-12.26Z"/>
        <path class="cls-6" d="m50.55,81.03l-1.13-1.13c.37.39.74.76,1.13,1.13Z"/>
        <path class="cls-5" d="m85.78,41.96h0c0-.91-.73-1.64-1.64-1.64h-25.24c-.91,0-1.64.73-1.64,1.64h0c0,.91.73,1.64,1.64,1.64h10.37c.99,0,1.86.65,2.17,1.59,0,.02.01.03.02.05.47,1.46-.63,2.95-2.17,2.95-3.06,0-7.88,0-10.39,0-.91,0-1.64.73-1.64,1.64h0c0,.91.73,1.64,1.64,1.64h12.63c-.11.23-.23.44-.37.65-2.42,3.48-9.34,3.71-11.8,3.51h0c-1.39-.12-2.28,1.45-1.47,2.58l14.68,20.63c.52.74,1.55.91,2.29.39h0c.74-.52.91-1.55.39-2.29l-11.21-15.76c-.7-.98-.13-2.37,1.06-2.56,3.15-.51,6.75-1.74,8.76-4.62.33-.47.6-.96.82-1.48.26-.62.85-1.04,1.53-1.04h7.95c.91,0,1.64-.73,1.64-1.64h0c0-.91-.73-1.64-1.64-1.64h-6.8c-1.09,0-2.02-.77-2.23-1.84,0-.02,0-.03,0-.05-.28-1.4.8-2.71,2.23-2.71h6.81c.91,0,1.64-.73,1.64-1.64Z"/>
      </g>
      <rect class="cls-7" width="142.56" height="117.36"/>
    </g>
  </g>
</svg>