<?xml version="1.0" encoding="utf-8"?>
<!-- Generator: Adobe Illustrator 27.1.1, SVG Export Plug-In . SVG Version: 6.00 Build 0)  -->
<svg version="1.1" id="Layer_1" xmlns="http://www.w3.org/2000/svg" xmlns:xlink="http://www.w3.org/1999/xlink" x="0px" y="0px"
	 viewBox="0 0 252 144" style="enable-background:new 0 0 252 144;" xml:space="preserve">
<style type="text/css">
	.st0{fill:#F9ED2F;}
	.st1{fill:#FEDA00;}
	.st2{fill:#F3B31B;}
	.st3{opacity:0.25;fill:#FFF09A;}
	.st4{opacity:0.15;fill:#544118;}
	.st5{opacity:0.18;fill:#FEDA00;}
</style>
<circle class="st0" cx="116.95" cy="70.37" r="42.61"/>
<circle class="st1" cx="117.21" cy="70.63" r="41.17"/>
<circle class="st0" cx="117.21" cy="70.63" r="34.78"/>
<circle class="st2" cx="117.21" cy="70.63" r="32.47"/>
<path class="st3" d="M88.65,70.63c0-17.27,13.49-31.39,30.51-32.4c-0.65-0.04-1.3-0.06-1.96-0.06c-17.93,0-32.47,14.54-32.47,32.47
	s14.54,32.47,32.47,32.47c0.66,0,1.31-0.03,1.96-0.06C102.14,102.03,88.65,87.91,88.65,70.63z"/>
<path class="st4" d="M130.09,40.83c9.82,5.58,16.46,16.13,16.46,28.24c0,17.93-14.54,32.47-32.47,32.47
	c-4.58,0-8.93-0.95-12.88-2.66c4.73,2.69,10.19,4.23,16.01,4.23c17.93,0,32.47-14.54,32.47-32.47
	C149.68,57.28,141.61,45.81,130.09,40.83z"/>
<path class="st5" d="M84.74,70.63c0,8.66,3.4,16.52,8.92,22.34l1.2,1.2c5.82,5.53,13.68,8.92,22.34,8.92
	c5.45,0,10.58-1.35,15.09-3.72L88.46,55.54C86.09,60.05,84.74,65.18,84.74,70.63z"/>
<path class="st5" d="M149.68,70.63c0-1.44-0.1-2.85-0.28-4.23l-27.95-27.95c-1.39-0.18-2.8-0.28-4.23-0.28
	c-4.65,0-9.07,0.98-13.06,2.74l42.79,42.79C148.69,79.7,149.68,75.28,149.68,70.63z"/>
<path class="st2" d="M94.86,94.18l-1.2-1.2C94.05,93.39,94.45,93.79,94.86,94.18z"/>
<g>
	<path class="st0" d="M108.61,63.83c0.99-1.19,2.13-2.07,3.45-2.72c0.14-0.07,0.46,0.07,0.6,0.21c2.66,2.61,3.99,5.8,3.85,9.52
		c-0.23,6.2-4.72,11.15-10.85,12.08c-6.65,1.01-13.12-3.7-14.21-10.34c-1.18-7.13,3.52-13.62,10.67-14.7
		c1.73-0.26,3.46-0.14,5.16,0.33c0.09,0.02,0.17,0.08,0.31,0.15c-0.12,0.13-0.21,0.22-0.3,0.31c-1.02,1.09-2.03,2.18-3.07,3.25
		c-0.2,0.2-0.5,0.4-0.77,0.41c-4.42,0.26-7.88,4.15-7.6,8.47c0.32,4.87,4.48,8.09,8.82,7.61c3.4-0.38,5.78-2.26,6.86-5.51
		c1.06-3.21,0.22-6.05-2.18-8.42C109.12,64.27,108.89,64.08,108.61,63.83"/>
	<path class="st0" d="M126.78,76.97c-0.97,1.18-2.09,2.05-3.4,2.67c-0.14,0.06-0.45-0.08-0.59-0.22c-1.97-1.93-3.23-4.25-3.64-6.98
		c-0.9-6.06,2.21-11.47,7.86-13.78c6.27-2.56,13.86,0.74,16.27,7.07c2.55,6.7-0.54,13.79-7.2,16.44c-2.5,1-5.09,1.07-7.7,0.42
		c-0.09-0.02-0.19-0.06-0.27-0.11c-0.03-0.01-0.04-0.06-0.08-0.14c0.13-0.12,0.28-0.25,0.41-0.39c0.92-0.99,1.86-1.96,2.75-2.98
		c0.25-0.29,0.47-0.46,0.88-0.49c4.7-0.34,8.05-4.36,7.54-9.01c-0.42-3.85-3.59-6.89-7.48-7.17c-3.83-0.27-7.44,2.31-8.36,6.04
		c-0.8,3.24,0.12,5.98,2.57,8.22C126.45,76.68,126.59,76.8,126.78,76.97"/>
	<path class="st0" d="M119.75,54.5c1.68,1.52,3.3,2.99,5.03,4.56c-2.42,0.63-4.71,1.23-7.11,1.86c0.24-0.78,0.44-1.42,0.66-2.12
		c-0.21-0.04-0.38-0.09-0.55-0.1c-5.8-0.54-11.34,3.49-12.62,9.16c-0.08,0.35-0.04,0.61,0.27,0.88c1.05,0.92,1.04,2.46,0.03,3.38
		c-1.01,0.92-2.61,0.77-3.44-0.32c-0.82-1.08-0.52-2.55,0.65-3.34c0.22-0.14,0.42-0.43,0.47-0.68c1.35-6.66,7.48-11.41,14.3-11.07
		c1.58,0.08,1.58,0.08,2.05-1.45C119.54,55.04,119.63,54.82,119.75,54.5"/>
	<path class="st0" d="M115.68,86.25c-1.68-1.53-3.25-2.95-4.93-4.48c2.37-0.62,4.59-1.2,6.94-1.82c-0.15,0.54-0.27,0.97-0.4,1.4
		c-0.22,0.74-0.2,0.78,0.55,0.81c4.29,0.18,7.78-1.41,10.42-4.79c1.03-1.32,1.69-2.83,2.07-4.47c0.08-0.36,0-0.59-0.26-0.84
		c-1.04-0.97-1.04-2.5-0.03-3.38c0.99-0.87,2.55-0.72,3.36,0.32c0.82,1.06,0.51,2.51-0.67,3.33c-0.2,0.14-0.38,0.41-0.44,0.65
		c-1.29,5.57-4.74,9.08-10.18,10.66c-1.66,0.49-3.39,0.52-5.1,0.35c-0.42-0.04-0.62,0.07-0.73,0.47
		C116.11,85.03,115.9,85.59,115.68,86.25"/>
</g>
</svg>
